# xmcd CD database file
#
# Track frame offsets:
#	150
#	9155
#	23435
#	31120
#	47802
#	58275
#	84482
#	100992
#	113600
#	127165
#	137487
#	149982
#	153955
#	163325
#	187585
#	204712
#
# Disc length: 2983 seconds
#
# Revision: 0
# Processed by: cddbd v1.5.2PL0 Copyright (c) Steve Scherf et al.
# Submitted via: CDex 1.70beta2
#
DISCID=d40ba510
DTITLE=歌：米良美一／ピアノ：内山夏子 - 忘れえぬ日本のうたベスト disc1
DYEAR=1900
DGENRE=歌曲
TTITLE0=浜千鳥
TTITLE1=城ヶ島の雨
TTITLE2=宵待草
TTITLE3=叱られて
TTITLE4=赤とんぼ
TTITLE5=荒城の月
TTITLE6=ふるみち
TTITLE7=秋の野
TTITLE8=ペチカ
TTITLE9=夜店の唄
TTITLE10=夢見たものは
TTITLE11=ばらの木
TTITLE12=浜辺の歌
TTITLE13=カチューシャの唄
TTITLE14=水色のワルツ
TTITLE15=見上げてごらん夜の星を
EXTD=
EXTT0=
EXTT1=
EXTT2=
EXTT3=
EXTT4=
EXTT5=
EXTT6=
EXTT7=
EXTT8=
EXTT9=
EXTT10=
EXTT11=
EXTT12=
EXTT13=
EXTT14=
EXTT15=
PLAYORDER=
